<mxfile host="app.diagrams.net" modified="2021-09-30T03:33:48.534Z" agent="5.0 (X11; Linux x86_64) AppleWebKit/537.36 (KHTML, like Gecko) Chrome/94.0.4606.61 Safari/537.36" etag="Hy5er5LD5QXP13ufBYbi" version="15.3.8" type="github">
  <diagram id="NoOb-j3YrygcsHal6Q2r" name="Page-1">
    <mxGraphModel dx="1422" dy="761" grid="1" gridSize="10" guides="1" tooltips="1" connect="1" arrows="1" fold="1" page="1" pageScale="1" pageWidth="1920" pageHeight="1200" math="0" shadow="0">
      <root>
        <mxCell id="0" />
        <mxCell id="1" parent="0" />
        <mxCell id="IMfOi4sXUm4Xsk08d8dx-1" value="" style="edgeStyle=orthogonalEdgeStyle;rounded=0;orthogonalLoop=1;jettySize=auto;html=1;" edge="1" parent="1" source="IMfOi4sXUm4Xsk08d8dx-2" target="IMfOi4sXUm4Xsk08d8dx-4">
          <mxGeometry relative="1" as="geometry" />
        </mxCell>
        <mxCell id="IMfOi4sXUm4Xsk08d8dx-2" value="HelloWorld.jrxml&lt;br&gt;(报表设计文件)" style="rounded=0;whiteSpace=wrap;html=1;" vertex="1" parent="1">
          <mxGeometry x="120" y="360" width="120" height="60" as="geometry" />
        </mxCell>
        <mxCell id="IMfOi4sXUm4Xsk08d8dx-3" value="" style="edgeStyle=orthogonalEdgeStyle;rounded=0;orthogonalLoop=1;jettySize=auto;html=1;" edge="1" parent="1" source="IMfOi4sXUm4Xsk08d8dx-4" target="IMfOi4sXUm4Xsk08d8dx-9">
          <mxGeometry relative="1" as="geometry" />
        </mxCell>
        <mxCell id="IMfOi4sXUm4Xsk08d8dx-4" value="HelloWorld.jasper&lt;br&gt;(报表待填充文件)" style="rounded=0;whiteSpace=wrap;html=1;" vertex="1" parent="1">
          <mxGeometry x="360" y="360" width="120" height="60" as="geometry" />
        </mxCell>
        <mxCell id="IMfOi4sXUm4Xsk08d8dx-5" value="" style="edgeStyle=orthogonalEdgeStyle;rounded=0;orthogonalLoop=1;jettySize=auto;html=1;" edge="1" parent="1" source="IMfOi4sXUm4Xsk08d8dx-9" target="IMfOi4sXUm4Xsk08d8dx-12">
          <mxGeometry relative="1" as="geometry">
            <Array as="points">
              <mxPoint x="800" y="390" />
              <mxPoint x="800" y="260" />
            </Array>
          </mxGeometry>
        </mxCell>
        <mxCell id="IMfOi4sXUm4Xsk08d8dx-6" value="" style="edgeStyle=orthogonalEdgeStyle;rounded=0;orthogonalLoop=1;jettySize=auto;html=1;entryX=0;entryY=0.5;entryDx=0;entryDy=0;" edge="1" parent="1" source="IMfOi4sXUm4Xsk08d8dx-9" target="IMfOi4sXUm4Xsk08d8dx-13">
          <mxGeometry relative="1" as="geometry">
            <mxPoint x="660" y="280" as="targetPoint" />
          </mxGeometry>
        </mxCell>
        <mxCell id="IMfOi4sXUm4Xsk08d8dx-7" value="" style="edgeStyle=orthogonalEdgeStyle;rounded=0;orthogonalLoop=1;jettySize=auto;html=1;entryX=0;entryY=0.5;entryDx=0;entryDy=0;" edge="1" parent="1" source="IMfOi4sXUm4Xsk08d8dx-9" target="IMfOi4sXUm4Xsk08d8dx-14">
          <mxGeometry relative="1" as="geometry">
            <mxPoint x="660" y="280" as="targetPoint" />
          </mxGeometry>
        </mxCell>
        <mxCell id="IMfOi4sXUm4Xsk08d8dx-8" value="" style="edgeStyle=orthogonalEdgeStyle;rounded=0;orthogonalLoop=1;jettySize=auto;html=1;entryX=0;entryY=0.5;entryDx=0;entryDy=0;" edge="1" parent="1" source="IMfOi4sXUm4Xsk08d8dx-9" target="IMfOi4sXUm4Xsk08d8dx-15">
          <mxGeometry relative="1" as="geometry">
            <mxPoint x="660" y="280" as="targetPoint" />
          </mxGeometry>
        </mxCell>
        <mxCell id="IMfOi4sXUm4Xsk08d8dx-9" value="HelloWorld.jrprint&lt;br&gt;(报表填充文件)" style="rounded=0;whiteSpace=wrap;html=1;" vertex="1" parent="1">
          <mxGeometry x="600" y="360" width="120" height="60" as="geometry" />
        </mxCell>
        <mxCell id="IMfOi4sXUm4Xsk08d8dx-10" value="编译" style="text;html=1;align=center;verticalAlign=middle;resizable=0;points=[];autosize=1;" vertex="1" parent="1">
          <mxGeometry x="270" y="370" width="40" height="20" as="geometry" />
        </mxCell>
        <mxCell id="IMfOi4sXUm4Xsk08d8dx-11" value="填充" style="text;html=1;align=center;verticalAlign=middle;resizable=0;points=[];autosize=1;" vertex="1" parent="1">
          <mxGeometry x="520" y="370" width="40" height="20" as="geometry" />
        </mxCell>
        <mxCell id="IMfOi4sXUm4Xsk08d8dx-12" value="HelloWorld.xml" style="rounded=0;whiteSpace=wrap;html=1;" vertex="1" parent="1">
          <mxGeometry x="880" y="230" width="120" height="60" as="geometry" />
        </mxCell>
        <mxCell id="IMfOi4sXUm4Xsk08d8dx-13" value="HelloWorld.xls" style="rounded=0;whiteSpace=wrap;html=1;" vertex="1" parent="1">
          <mxGeometry x="880" y="320" width="120" height="60" as="geometry" />
        </mxCell>
        <mxCell id="IMfOi4sXUm4Xsk08d8dx-14" value="HelloWorld.pdf" style="rounded=0;whiteSpace=wrap;html=1;" vertex="1" parent="1">
          <mxGeometry x="880" y="410" width="120" height="60" as="geometry" />
        </mxCell>
        <mxCell id="IMfOi4sXUm4Xsk08d8dx-15" value="HelloWorld.html" style="rounded=0;whiteSpace=wrap;html=1;" vertex="1" parent="1">
          <mxGeometry x="880" y="500" width="120" height="60" as="geometry" />
        </mxCell>
        <mxCell id="IMfOi4sXUm4Xsk08d8dx-16" value="导出" style="text;html=1;align=center;verticalAlign=middle;resizable=0;points=[];autosize=1;" vertex="1" parent="1">
          <mxGeometry x="740" y="370" width="40" height="20" as="geometry" />
        </mxCell>
      </root>
    </mxGraphModel>
  </diagram>
</mxfile>
